<svg version="1.1" viewBox="0.0 0.0 274.01312335958005 100.0" fill="none" stroke="none" stroke-linecap="square" stroke-miterlimit="10" xmlns:xlink="http://www.w3.org/1999/xlink" xmlns="http://www.w3.org/2000/svg"><clipPath id="p.0"><path d="m0 0l274.01312 0l0 100.0l-274.01312 0l0 -100.0z" clip-rule="nonzero"/></clipPath><g clip-path="url(#p.0)"><path fill="#000000" fill-opacity="0.0" d="m0 0l274.01312 0l0 100.0l-274.01312 0z" fill-rule="evenodd"/><path fill="#000000" fill-opacity="0.0" d="m-2.3412063 17.417322l300.47244 0l0 65.16536l-300.47244 0z" fill-rule="evenodd"/><path fill="#ff9900" d="m31.221294 48.574825l-20.875 8.671875l0 -4.484375l14.609376 -5.96875l-14.609376 -5.96875l0 -4.484375l20.875 8.671875l0 3.5625z" fill-rule="nonzero"/><path fill="#000000" d="m52.440044 35.46545l-1.671875 3.359375q-1.359375 -1.359375 -4.375 -1.359375q-2.859375 0 -4.6875 2.40625q-1.828125 2.390625 -1.828125 6.0625q0 3.671875 1.6875 5.828125q1.703125 2.15625 4.53125 2.15625q3.234375 0 5.0625 -2.3125l1.890625 3.28125q-2.484375 2.640625 -7.28125 2.640625q-4.796875 0 -7.453125 -3.15625q-2.65625 -3.15625 -2.65625 -8.609375q0 -5.078125 2.9375 -8.484375q2.953125 -3.421875 7.546875 -3.421875q3.9375 0 6.296875 1.609375zm13.328121 8.578125q-1.046875 -0.6875 -2.2968712 -0.6875q-1.359375 0 -2.421875 1.234375q-1.046875 1.234375 -1.046875 3.015625l0 9.53125l-3.90625 0l0 -16.734375l3.90625 0l0 1.53125q1.640625 -1.84375 4.359371 -1.84375q2.0 0 3.0625 0.609375l-1.65625 3.34375zm11.40625 15.78125q-0.625 1.671875 -2.6875 2.765625q-2.046875 1.109375 -4.78125 1.109375l0 -3.453125q4.515625 0 4.515625 -2.265625q0 -1.5 -1.25 -4.59375l-5.234375 -12.984375l4.046875 0l4.5625 11.5625l4.109375 -11.5625l4.046875 0l-7.328125 19.421875zm13.265625 -3.109375l0 6.984375l-3.90625 0l0 -23.296875l3.90625 0l0 1.125q1.46875 -1.4375 3.609375 -1.4375q8.0 0 8.0 8.8125q0 4.109375 -2.21875 6.328125q-2.203125 2.21875 -6.03125 2.21875q-1.84375 0 -3.359375 -0.734375zm0 -12.21875l0 8.796875q1.0625 0.859375 2.484375 0.859375q2.703125 0 3.875 -1.28125q1.1875 -1.296875 1.1875 -4.078125q0 -2.96875 -1.171875 -4.171875q-1.171875 -1.21875 -3.875 -1.21875q-1.40625 0 -2.5 1.09375zm15.640625 -0.953125l-1.9375 0l0 -3.140625l1.9375 0l0 -3.40625l3.90625 -1.4375l0 4.84375l4.59375 0l0 3.140625l-4.59375 0l0 7.328125q0 1.796875 0.5625 2.546875q0.5625 0.734375 1.96875 0.734375q1.40625 0 2.625 -0.765625l0 3.59375q-1.359375 0.46875 -3.875 0.46875q-2.5 0 -3.84375 -1.40625q-1.34375 -1.421875 -1.34375 -4.03125l0 -8.46875zm11.0 5.1875q0 -3.828125 2.203125 -6.234375q2.21875 -2.40625 5.84375 -2.40625q3.8125076 0 5.9218826 2.3125q2.109375 2.3125 2.109375 6.328125q0 4.0 -2.15625 6.359375q-2.140625 2.359375 -5.8750076 2.359375q-3.8125 0 -5.9375 -2.375q-2.109375 -2.390625 -2.109375 -6.34375zm4.0625 0q0 5.53125 3.984375 5.53125q1.828125 0 2.8906326 -1.4375q1.078125 -1.4375 1.078125 -4.09375q0 -5.453125 -3.9687576 -5.453125q-1.828125 0 -2.90625 1.4375q-1.078125 1.4375 -1.078125 4.015625zm25.906258 8.40625l0 -9.671875q0 -2.140625 -0.828125 -3.125q-0.8125 -0.984375 -2.671875 -0.984375q-0.859375 0 -1.84375 0.484375q-0.96875 0.484375 -1.515625 1.203125l0 12.09375l-3.90625 0l0 -16.734375l2.8125 0l0.71875 1.5625q1.59375 -1.875 4.703125 -1.875q2.984375 0 4.703125 1.796875q1.734375 1.78125 1.734375 4.984375l0 10.265625l-3.90625 0zm23.0625 -7.171875l-11.953125 0q0.109375 2.0 1.375 3.109375q1.265625 1.109375 3.40625 1.109375q2.671875 0 4.0625 -1.390625l1.515625 2.984375q-2.0625 1.671875 -6.15625 1.671875q-3.828125 0 -6.0625 -2.234375q-2.21875 -2.25 -2.21875 -6.265625q0 -3.953125 2.4375 -6.40625q2.453125 -2.453125 5.875 -2.453125q3.640625 0 5.84375 2.171875q2.203125 2.171875 2.203125 5.53125q0 0.71875 -0.328125 2.171875zm-11.8125 -2.9375l8.21875 0q-0.40625 -3.671875 -4.0625 -3.671875q-3.34375 0 -4.15625 3.671875zm15.859375 -3.484375l-1.9375 0l0 -3.140625l1.9375 0l0 -3.40625l3.90625 -1.4375l0 4.84375l4.59375 0l0 3.140625l-4.59375 0l0 7.328125q0 1.796875 0.5625 2.546875q0.5625 0.734375 1.96875 0.734375q1.40625 0 2.625 -0.765625l0 3.59375q-1.359375 0.46875 -3.875 0.46875q-2.5 0 -3.84375 -1.40625q-1.34375 -1.421875 -1.34375 -4.03125l0 -8.46875zm21.640625 -5.6875l0 19.28125l-4.0625 0l0 -19.28125l-7.28125 0l0 -3.609375l18.953125 0l0 3.609375l-7.609375 0zm24.96875 12.109375l-11.953125 0q0.109375 2.0 1.375 3.109375q1.265625 1.109375 3.40625 1.109375q2.671875 0 4.0625 -1.390625l1.515625 2.984375q-2.0625 1.671875 -6.15625 1.671875q-3.828125 0 -6.0625 -2.234375q-2.21875 -2.25 -2.21875 -6.265625q0 -3.953125 2.4375 -6.40625q2.453125 -2.453125 5.875 -2.453125q3.640625 0 5.84375 2.171875q2.203125 2.171875 2.203125 5.53125q0 0.71875 -0.328125 2.171875zm-11.8125 -2.9375l8.21875 0q-0.40625 -3.671875 -4.0625 -3.671875q-3.34375 0 -4.15625 3.671875zm28.390625 -5.296875l-1.671875 2.921875q-1.375 -1.296875 -3.6875 -1.296875q-2.21875 0 -3.515625 1.484375q-1.28125 1.46875 -1.28125 4.078125q0 5.265625 5.015625 5.265625q2.171875 0 3.828125 -1.4375l1.4375 3.078125q-1.703125 1.0625 -2.984375 1.34375q-1.265625 0.28125 -3.0 0.28125q-3.875 0 -6.125 -2.25q-2.234375 -2.265625 -2.234375 -6.28125q0 -3.953125 2.453125 -6.390625q2.453125 -2.4375 6.6875 -2.4375q2.921875 0 5.078125 1.640625zm14.078125 15.40625l0 -10.3125q0 -1.546875 -0.96875 -2.484375q-0.96875 -0.9375 -2.53125 -0.9375q-0.96875 0 -1.953125 0.53125q-0.984375 0.515625 -1.40625 1.1875l0 12.015625l-3.96875 0l0 -22.96875l3.96875 -0.9375l0 8.234375q1.515625 -1.375 4.171875 -1.375q3.140625 0 4.875 1.75q1.734375 1.734375 1.734375 4.984375l0 10.3125l-3.921875 0z" fill-rule="nonzero"/><path fill="#ff9900" d="m262.9869 52.7467q0.96875 0 1.65625 0.6875q0.6875 0.6875 0.6875 1.65625q0 0.96875 -0.6875 1.671875q-0.6875 0.6875 -1.65625 0.6875q-0.96875 0 -1.65625 -0.6875q-0.6875 -0.703125 -0.6875 -1.671875q0 -0.96875 0.6875 -1.65625q0.6875 -0.6875 1.65625 -0.6875z" fill-rule="nonzero"/></g></svg>