<svg version="1.1" viewBox="0.0 0.0 274.01312335958005 100.0" fill="none" stroke="none" stroke-linecap="square" stroke-miterlimit="10" xmlns:xlink="http://www.w3.org/1999/xlink" xmlns="http://www.w3.org/2000/svg"><clipPath id="p.0"><path d="m0 0l274.01312 0l0 100.0l-274.01312 0l0 -100.0z" clip-rule="nonzero"/></clipPath><g clip-path="url(#p.0)"><path fill="#000000" fill-opacity="0.0" d="m0 0l274.01312 0l0 100.0l-274.01312 0z" fill-rule="evenodd"/><path fill="#000000" fill-opacity="0.0" d="m-5.265091 1.4383202l300.4724 0l0 65.16536l-300.4724 0z" fill-rule="evenodd"/><path fill="#ff9900" d="m28.29741 32.59582l-20.875 8.671875l0 -4.484375l14.609375 -5.96875l-14.609375 -5.96875l0 -4.484375l20.875 8.671875l0 3.5625z" fill-rule="nonzero"/><path fill="#000000" d="m49.51616 19.486446l-1.671875 3.359375q-1.359375 -1.359375 -4.375 -1.359375q-2.859375 0 -4.6875 2.40625q-1.828125 2.390625 -1.828125 6.0625q0 3.671875 1.6875 5.828125q1.703125 2.15625 4.53125 2.15625q3.234375 0 5.0625 -2.3125l1.890625 3.28125q-2.484375 2.640625 -7.28125 2.640625q-4.796875 0 -7.453125 -3.15625q-2.65625 -3.15625 -2.65625 -8.609375q0 -5.078125 2.9375 -8.484375q2.953125 -3.421875 7.546875 -3.421875q3.9375 0 6.296875 1.609375zm13.328125 8.578125q-1.046875 -0.6875 -2.296875 -0.6875q-1.359375 0 -2.421875 1.234375q-1.046875 1.234375 -1.046875 3.015625l0 9.53125l-3.90625 0l0 -16.734375l3.90625 0l0 1.53125q1.640625 -1.84375 4.359375 -1.84375q2.0 0 3.0625 0.609375l-1.65625 3.34375zm11.40625 15.78125q-0.625 1.671875 -2.6875 2.765625q-2.046875 1.109375 -4.78125 1.109375l0 -3.453125q4.515625 0 4.515625 -2.265625q0 -1.5 -1.25 -4.59375l-5.234375 -12.984375l4.046875 0l4.5625 11.5625l4.109375 -11.5625l4.046875 0l-7.328125 19.421875zm13.265625 -3.109375l0 6.984375l-3.90625 0l0 -23.296875l3.90625 0l0 1.125q1.46875 -1.4375 3.609375 -1.4375q8.0 0 8.0 8.8125q0 4.109375 -2.21875 6.328125q-2.203125 2.21875 -6.03125 2.21875q-1.84375 0 -3.359375 -0.734375zm0 -12.21875l0 8.796875q1.0625 0.859375 2.484375 0.859375q2.703125 0 3.875 -1.28125q1.1875 -1.296875 1.1875 -4.078125q0 -2.96875 -1.171875 -4.171875q-1.171875 -1.21875 -3.875 -1.21875q-1.40625 0 -2.5 1.09375zm15.640625 -0.953125l-1.9375 0l0 -3.140625l1.9375 0l0 -3.40625l3.90625 -1.4375l0 4.84375l4.59375 0l0 3.140625l-4.59375 0l0 7.328125q0 1.796875 0.5625 2.546875q0.5625 0.734375 1.96875 0.734375q1.40625 0 2.625 -0.765625l0 3.59375q-1.359375 0.46875 -3.875 0.46875q-2.5 0 -3.84375 -1.40625q-1.34375 -1.421875 -1.34375 -4.03125l0 -8.46875zm11.0 5.1875q0 -3.828125 2.203125 -6.234375q2.21875 -2.40625 5.84375 -2.40625q3.8125 0 5.921875 2.3125q2.109375 2.3125 2.109375 6.328125q0 4.0 -2.15625 6.359375q-2.140625 2.359375 -5.875 2.359375q-3.8125 0 -5.9375 -2.375q-2.109375 -2.390625 -2.109375 -6.34375zm4.0625 0q0 5.53125 3.984375 5.53125q1.828125 0 2.890625 -1.4375q1.078125 -1.4375 1.078125 -4.09375q0 -5.453125 -3.96875 -5.453125q-1.828125 0 -2.90625 1.4375q-1.078125 1.4375 -1.078125 4.015625zm25.90625 8.40625l0 -9.671875q0 -2.140625 -0.828125 -3.125q-0.8125 -0.984375 -2.671875 -0.984375q-0.859375 0 -1.84375 0.484375q-0.96875 0.484375 -1.515625 1.203125l0 12.09375l-3.90625 0l0 -16.734375l2.8125 0l0.71875 1.5625q1.59375 -1.875 4.703125 -1.875q2.984375 0 4.703125 1.796875q1.734375 1.78125 1.734375 4.984375l0 10.265625l-3.90625 0zm23.0625 -7.171875l-11.953125 0q0.109375 2.0 1.375 3.109375q1.265625 1.109375 3.40625 1.109375q2.671875 0 4.0625 -1.390625l1.515625 2.984375q-2.0625 1.671875 -6.15625 1.671875q-3.828125 0 -6.0625 -2.234375q-2.21875 -2.25 -2.21875 -6.265625q0 -3.953125 2.4375 -6.40625q2.453125 -2.453125 5.875 -2.453125q3.640625 0 5.84375 2.171875q2.203125 2.171875 2.203125 5.53125q0 0.71875 -0.328125 2.171875zm-11.8125 -2.9375l8.21875 0q-0.40625 -3.671875 -4.0625 -3.671875q-3.34375 0 -4.15625 3.671875zm15.859375 -3.484375l-1.9375 0l0 -3.140625l1.9375 0l0 -3.40625l3.90625 -1.4375l0 4.84375l4.59375 0l0 3.140625l-4.59375 0l0 7.328125q0 1.796875 0.5625 2.546875q0.5625 0.734375 1.96875 0.734375q1.40625 0 2.625 -0.765625l0 3.59375q-1.359375 0.46875 -3.875 0.46875q-2.5 0 -3.84375 -1.40625q-1.34375 -1.421875 -1.34375 -4.03125l0 -8.46875zm21.640625 -5.6875l0 19.28125l-4.0625 0l0 -19.28125l-7.28125 0l0 -3.609375l18.953125 0l0 3.609375l-7.609375 0zm24.96875 12.109375l-11.953125 0q0.109375 2.0 1.375 3.109375q1.265625 1.109375 3.40625 1.109375q2.671875 0 4.0625 -1.390625l1.515625 2.984375q-2.0625 1.671875 -6.15625 1.671875q-3.828125 0 -6.0625 -2.234375q-2.21875 -2.25 -2.21875 -6.265625q0 -3.953125 2.4375 -6.40625q2.453125 -2.453125 5.875 -2.453125q3.640625 0 5.84375 2.171875q2.203125 2.171875 2.203125 5.53125q0 0.71875 -0.328125 2.171875zm-11.8125 -2.9375l8.21875 0q-0.40625 -3.671875 -4.0625 -3.671875q-3.34375 0 -4.15625 3.671875zm28.390625 -5.296875l-1.671875 2.921875q-1.375 -1.296875 -3.6875 -1.296875q-2.21875 0 -3.515625 1.484375q-1.28125 1.46875 -1.28125 4.078125q0 5.265625 5.015625 5.265625q2.171875 0 3.828125 -1.4375l1.4375 3.078125q-1.703125 1.0625 -2.984375 1.34375q-1.265625 0.28125 -3.0 0.28125q-3.875 0 -6.125 -2.25q-2.234375 -2.265625 -2.234375 -6.28125q0 -3.953125 2.453125 -6.390625q2.453125 -2.4375 6.6875 -2.4375q2.921875 0 5.078125 1.640625zm14.078125 15.40625l0 -10.3125q0 -1.546875 -0.96875 -2.484375q-0.96875 -0.9375 -2.53125 -0.9375q-0.96875 0 -1.953125 0.53125q-0.984375 0.515625 -1.40625 1.1875l0 12.015625l-3.96875 0l0 -22.96875l3.96875 -0.9375l0 8.234375q1.515625 -1.375 4.171875 -1.375q3.140625 0 4.875 1.75q1.734375 1.734375 1.734375 4.984375l0 10.3125l-3.921875 0z" fill-rule="nonzero"/><path fill="#ff9900" d="m260.06305 36.767696q0.96875 0 1.65625 0.6875q0.6875 0.6875 0.6875 1.65625q0 0.96875 -0.6875 1.671875q-0.6875 0.6875 -1.65625 0.6875q-0.96875 0 -1.65625 -0.6875q-0.6875 -0.703125 -0.6875 -1.671875q0 -0.96875 0.6875 -1.65625q0.6875 -0.6875 1.65625 -0.6875z" fill-rule="nonzero"/><path fill="#000000" fill-opacity="0.0" d="m-0.002624672 41.120735l274.01575 0l0 26.48819l-274.01575 0z" fill-rule="evenodd"/><path fill="#000000" d="m17.059875 64.20074l-5.703125 -7.796879l0 7.796879l-1.21875 0l0 -9.781254l1.25 0l5.625 7.640625l0 -7.640625l1.21875 0l0 9.781254l-1.171875 0zm6.611038 0.171875q-1.59375 0 -2.609375 -1.0312538q-1.0 -1.046875 -1.0 -2.6875q0 -1.5625 1.0 -2.625q1.0 -1.078125 2.484375 -1.078125q1.53125 0 2.46875 1.0625q0.9375 1.046875 0.9375 2.734375l0 0.265625l-5.734375 0q0.0625 1.09375 0.78125 1.78125q0.734375 0.671875 1.765625 0.671875q1.296875 0 2.1875 -0.890625l0.53125 0.71875q-1.078125 1.0781288 -2.8125 1.0781288zm2.203125 -4.156254q0 -0.984375 -0.65625 -1.671875q-0.640625 -0.6875 -1.6875 -0.6875q-0.96875 0 -1.625 0.6875q-0.65625 0.6875 -0.6875 1.671875l4.65625 0zm7.6264954 3.9843788l0 -1.0000038q-0.40625 0.46875 -1.078125 0.8281288q-0.65625 0.34375 -1.4375 0.34375q-2.265625 0 -2.265625 -2.2500038l0 -5.0l1.109375 0l0 4.65625q0 0.84375 0.375 1.234375q0.375 0.375 1.203125 0.375q0.640625 0 1.203125 -0.3125q0.578125 -0.328125 0.890625 -0.75l0 -5.203125l1.09375 0l0 7.078129l-1.09375 0zm3.2943726 0l0 -7.078129l1.109375 0l0 1.140625q0.984375 -1.28125 2.359375 -1.28125l0 1.125l-0.4375 -0.046875q-0.5 0 -1.109375 0.359375q-0.59375 0.359375 -0.8125 0.765625l0 5.015629l-1.109375 0zm9.274078 0l0 -0.8125038q-0.90625 0.9843788 -2.34375 0.9843788q-1.078125 0 -1.78125 -0.6718788q-0.703125 -0.671875 -0.703125 -1.671875q0 -1.015625 0.6875 -1.671875q0.703125 -0.65625 1.796875 -0.65625q1.515625 0 2.34375 0.96875l0 -1.28125q0 -0.71875 -0.515625 -1.09375q-0.5 -0.390625 -1.28125 -0.390625q-1.25 0 -2.171875 0.984375l-0.5 -0.765625q1.125 -1.171875 2.828125 -1.171875q1.296875 0 2.015625 0.625q0.71875 0.625 0.71875 1.765625l0 4.859379l-1.09375 0zm-1.953125 -0.6093788q1.296875 0 1.953125 -0.890625l0 -1.328125q-0.65625 -0.875 -1.953125 -0.875q-0.78125 0 -1.265625 0.4375q-0.484375 0.421875 -0.484375 1.109375q0 0.671875 0.484375 1.109375q0.484375 0.4375 1.265625 0.4375zm5.239502 0.6093788l0 -9.781254l1.109375 0l0 9.781254l-1.109375 0zm7.1258698 0l0 -9.781254l3.34375 0q2.234375 0 3.625 1.390625q1.390625 1.390625 1.390625 3.515625q0 2.140625 -1.40625 3.515625q-1.390625 1.3593788 -3.609375 1.3593788l-3.34375 0zm3.34375 -1.0781288q1.671875 0 2.703125 -1.046875q1.046875 -1.0625 1.046875 -2.75q0 -1.703125 -1.03125 -2.75q-1.015625 -1.0625 -2.71875 -1.0625l-2.125 0l0 7.609375l2.125 0zm10.071915 1.2500038q-1.59375 0 -2.609375 -1.0312538q-1.0 -1.046875 -1.0 -2.6875q0 -1.5625 1.0 -2.625q1.0 -1.078125 2.484375 -1.078125q1.53125 0 2.46875 1.0625q0.9375 1.046875 0.9375 2.734375l0 0.265625l-5.734375 0q0.0625 1.09375 0.78125 1.78125q0.734375 0.671875 1.765625 0.671875q1.296875 0 2.1875 -0.890625l0.53125 0.71875q-1.078125 1.0781288 -2.8125 1.0781288zm2.203125 -4.156254q0 -0.984375 -0.65625 -1.671875q-0.640625 -0.6875 -1.6875 -0.6875q-0.96875 0 -1.625 0.6875q-0.65625 0.6875 -0.6875 1.671875l4.65625 0zm11.39212 3.9843788l0 -4.812504q0 -1.453125 -1.296875 -1.453125q-0.5625 0 -1.09375 0.328125q-0.515625 0.328125 -0.78125 0.75l0 5.187504l-1.109375 0l0 -4.812504q0 -1.453125 -1.296875 -1.453125q-0.546875 0 -1.0625 0.34375q-0.515625 0.328125 -0.796875 0.75l0 5.171879l-1.109375 0l0 -7.078129l1.109375 0l0 1.03125q0.25 -0.4375 0.9375 -0.8125q0.6875 -0.390625 1.34375 -0.390625q0.828125 0 1.28125 0.375q0.46875 0.375 0.625 0.9375q0.359375 -0.5625 1.03125 -0.9375q0.6875 -0.375 1.34375 -0.375q1.984375 0 1.984375 2.140625l0 5.109379l-1.109375 0zm6.3891754 0.171875q-1.53125 0 -2.515625 -1.0468788q-0.984375 -1.046875 -0.984375 -2.671875q0 -1.640625 0.984375 -2.671875q0.984375 -1.03125 2.515625 -1.03125q1.546875 0 2.515625 1.03125q0.984375 1.03125 0.984375 2.671875q0 1.625 -0.984375 2.671875q-0.96875 1.0468788 -2.515625 1.0468788zm0 -0.9843788q1.03125 0 1.6875 -0.765625q0.65625 -0.765625 0.65625 -1.96875q0 -1.1875 -0.65625 -1.953125q-0.65625 -0.765625 -1.6875 -0.765625q-1.015625 0 -1.6875 0.765625q-0.671875 0.75 -0.671875 1.953125q0 1.21875 0.65625 1.984375q0.671875 0.75 1.703125 0.75zm8.414658 0.9843788q-1.546875 0 -2.546875 -1.0468788q-0.984375 -1.0625 -0.984375 -2.671875q0 -1.59375 0.984375 -2.640625q1.0 -1.0625 2.546875 -1.0625q1.640625 0 2.59375 1.21875l-0.734375 0.6875q-0.671875 -0.921875 -1.796875 -0.921875q-1.09375 0 -1.78125 0.75q-0.671875 0.75 -0.671875 1.96875q0 1.234375 0.671875 1.984375q0.6875 0.75 1.78125 0.75q1.109375 0 1.796875 -0.921875l0.734375 0.671875q-0.953125 1.2343788 -2.59375 1.2343788zm4.1298676 -0.171875l0 -7.078129l1.109375 0l0 1.140625q0.984375 -1.28125 2.359375 -1.28125l0 1.125l-0.4375 -0.046875q-0.5 0 -1.109375 0.359375q-0.59375 0.359375 -0.8125 0.765625l0 5.015629l-1.109375 0zm9.274078 0l0 -0.8125038q-0.90625 0.9843788 -2.34375 0.9843788q-1.078125 0 -1.78125 -0.6718788q-0.703125 -0.671875 -0.703125 -1.671875q0 -1.015625 0.6875 -1.671875q0.703125 -0.65625 1.796875 -0.65625q1.515625 0 2.34375 0.96875l0 -1.28125q0 -0.71875 -0.515625 -1.09375q-0.5 -0.390625 -1.28125 -0.390625q-1.25 0 -2.171875 0.984375l-0.5 -0.765625q1.125 -1.171875 2.828125 -1.171875q1.296875 0 2.015625 0.625q0.71875 0.625 0.71875 1.765625l0 4.859379l-1.09375 0zm-1.953125 -0.6093788q1.296875 0 1.953125 -0.890625l0 -1.328125q-0.65625 -0.875 -1.953125 -0.875q-0.78125 0 -1.265625 0.4375q-0.484375 0.421875 -0.484375 1.109375q0 0.671875 0.484375 1.109375q0.484375 0.4375 1.265625 0.4375zm7.036377 0.7812538q-1.578125 0 -1.578125 -1.6562538l0 -4.625l-1.171875 0l0 -0.96875l1.171875 0l0 -1.9375l1.109375 0l0 1.9375l1.4375 0l0 0.96875l-1.4375 0l0 4.390625q0 0.40625 0.171875 0.65625q0.171875 0.25 0.546875 0.25q0.453125 0 0.75 -0.28125l0.3125 0.8125q-0.453125 0.4531288 -1.3125 0.4531288zm3.05896 -8.265629q-0.296875 0 -0.515625 -0.203125q-0.21875 -0.21875 -0.21875 -0.53125q0 -0.296875 0.21875 -0.515625q0.21875 -0.234375 0.515625 -0.234375q0.3125 0 0.53125 0.234375q0.21875 0.21875 0.21875 0.515625q0 0.3125 -0.21875 0.53125q-0.21875 0.203125 -0.53125 0.203125zm-0.546875 8.093754l0 -7.078129l1.109375 0l0 7.078129l-1.109375 0zm2.9695435 0l0 -0.8437538l3.890625 -5.265625l-3.890625 0l0 -0.96875l5.328125 0l0 0.828125l-3.921875 5.296875l3.984375 0l0 0.9531288l-5.390625 0zm10.44902 0.171875q-1.59375 0 -2.609375 -1.0312538q-1.0 -1.046875 -1.0 -2.6875q0 -1.5625 1.0 -2.625q1.0 -1.078125 2.484375 -1.078125q1.53125 0 2.46875 1.0625q0.9375 1.046875 0.9375 2.734375l0 0.265625l-5.734375 0q0.0625 1.09375 0.78125 1.78125q0.734375 0.671875 1.765625 0.671875q1.296875 0 2.1875 -0.890625l0.53125 0.71875q-1.078125 1.0781288 -2.8125 1.0781288zm2.203125 -4.156254q0 -0.984375 -0.65625 -1.671875q-0.640625 -0.6875 -1.6875 -0.6875q-0.96875 0 -1.625 0.6875q-0.65625 0.6875 -0.6875 1.671875l4.65625 0zm7.9858704 3.9843788l0 -1.0625038q-0.40625 0.546875 -1.03125 0.8906288q-0.609375 0.34375 -1.359375 0.34375q-1.421875 0 -2.296875 -1.0000038q-0.859375 -1.015625 -0.859375 -2.703125q0 -1.703125 0.875 -2.703125q0.875 -1.015625 2.28125 -1.015625q0.71875 0 1.328125 0.328125q0.625 0.328125 1.0625 0.90625l0 -3.765625l1.09375 0l0 9.781254l-1.09375 0zm-2.125 -0.8125038q0.65625 0 1.234375 -0.3125q0.59375 -0.328125 0.890625 -0.796875l0 -3.203125q-0.296875 -0.46875 -0.890625 -0.796875q-0.578125 -0.34375 -1.234375 -0.34375q-1.03125 0 -1.65625 0.75q-0.625 0.734375 -0.625 1.984375q0 1.21875 0.609375 1.96875q0.625 0.75 1.671875 0.75zm9.239944 0.8125038l0 -9.781254l3.34375 0q2.234375 0 3.625 1.390625q1.390625 1.390625 1.390625 3.515625q0 2.140625 -1.40625 3.515625q-1.390625 1.3593788 -3.609375 1.3593788l-3.34375 0zm3.34375 -1.0781288q1.671875 0 2.703125 -1.046875q1.046875 -1.0625 1.046875 -2.75q0 -1.703125 -1.03125 -2.75q-1.015625 -1.0625 -2.71875 -1.0625l-2.125 0l0 7.609375l2.125 0zm10.071915 1.2500038q-1.59375 0 -2.609375 -1.0312538q-1.0 -1.046875 -1.0 -2.6875q0 -1.5625 1.0 -2.625q1.0 -1.078125 2.484375 -1.078125q1.53125 0 2.46875 1.0625q0.9375 1.046875 0.9375 2.734375l0 0.265625l-5.734375 0q0.0625 1.09375 0.78125 1.78125q0.734375 0.671875 1.765625 0.671875q1.296875 0 2.1875 -0.890625l0.53125 0.71875q-1.078125 1.0781288 -2.8125 1.0781288zm2.203125 -4.156254q0 -0.984375 -0.65625 -1.671875q-0.640625 -0.6875 -1.6875 -0.6875q-0.96875 0 -1.625 0.6875q-0.65625 0.6875 -0.6875 1.671875l4.65625 0zm5.9702454 4.156254q-1.546875 0 -2.546875 -1.0468788q-0.984375 -1.0625 -0.984375 -2.671875q0 -1.59375 0.984375 -2.640625q1.0 -1.0625 2.546875 -1.0625q1.640625 0 2.59375 1.21875l-0.734375 0.6875q-0.671875 -0.921875 -1.796875 -0.921875q-1.09375 0 -1.78125 0.75q-0.671875 0.75 -0.671875 1.96875q0 1.234375 0.671875 1.984375q0.6875 0.75 1.78125 0.75q1.109375 0 1.796875 -0.921875l0.734375 0.671875q-0.953125 1.2343788 -2.59375 1.2343788zm4.6767426 -8.265629q-0.296875 0 -0.515625 -0.203125q-0.21875 -0.21875 -0.21875 -0.53125q0 -0.296875 0.21875 -0.515625q0.21875 -0.234375 0.515625 -0.234375q0.3125 0 0.53125 0.234375q0.21875 0.21875 0.21875 0.515625q0 0.3125 -0.21875 0.53125q-0.21875 0.203125 -0.53125 0.203125zm-0.546875 8.093754l0 -7.078129l1.109375 0l0 7.078129l-1.109375 0zm5.5476685 0.171875q-1.8125 0 -2.859375 -1.1093788l0.578125 -0.796875q0.34375 0.421875 0.96875 0.71875q0.625 0.296875 1.359375 0.296875q0.8125 0 1.234375 -0.34375q0.4375 -0.34375 0.4375 -0.875q0 -0.46875 -0.46875 -0.734375q-0.453125 -0.28125 -1.71875 -0.5625q-1.078125 -0.21875 -1.640625 -0.6875q-0.5625 -0.484375 -0.5625 -1.296875q0 -0.890625 0.71875 -1.453125q0.71875 -0.578125 1.921875 -0.578125q1.59375 0 2.625 1.015625l-0.515625 0.765625q-0.328125 -0.375 -0.875 -0.625q-0.546875 -0.265625 -1.234375 -0.265625q-0.734375 0 -1.15625 0.328125q-0.40625 0.3125 -0.40625 0.78125q0 0.421875 0.46875 0.671875q0.46875 0.25 1.71875 0.515625q1.078125 0.25 1.625 0.765625q0.5625 0.5 0.5625 1.328125q0 0.984375 -0.765625 1.5625q-0.75 0.5781288 -2.015625 0.5781288zm5.1120605 -8.265629q-0.296875 0 -0.515625 -0.203125q-0.21875 -0.21875 -0.21875 -0.53125q0 -0.296875 0.21875 -0.515625q0.21875 -0.234375 0.515625 -0.234375q0.3125 0 0.53125 0.234375q0.21875 0.21875 0.21875 0.515625q0 0.3125 -0.21875 0.53125q-0.21875 0.203125 -0.53125 0.203125zm-0.546875 8.093754l0 -7.078129l1.109375 0l0 7.078129l-1.109375 0zm6.3914185 0.171875q-1.53125 0 -2.515625 -1.0468788q-0.984375 -1.046875 -0.984375 -2.671875q0 -1.640625 0.984375 -2.671875q0.984375 -1.03125 2.515625 -1.03125q1.546875 0 2.515625 1.03125q0.984375 1.03125 0.984375 2.671875q0 1.625 -0.984375 2.671875q-0.96875 1.0468788 -2.515625 1.0468788zm0 -0.9843788q1.03125 0 1.6875 -0.765625q0.65625 -0.765625 0.65625 -1.96875q0 -1.1875 -0.65625 -1.953125q-0.65625 -0.765625 -1.6875 -0.765625q-1.015625 0 -1.6875 0.765625q-0.671875 0.75 -0.671875 1.953125q0 1.21875 0.65625 1.984375q0.671875 0.75 1.703125 0.75zm10.070908 0.8125038l0 -4.625004q0 -0.9375 -0.4375 -1.28125q-0.421875 -0.359375 -1.140625 -0.359375q-0.625 0 -1.21875 0.328125q-0.59375 0.328125 -0.875 0.765625l0 5.171879l-1.109375 0l0 -7.078129l1.109375 0l0 1.03125q0.453125 -0.53125 1.109375 -0.859375q0.671875 -0.34375 1.40625 -0.34375q2.25 0 2.25 2.28125l0 4.968754l-1.09375 0zm2.6381226 -3.0625038l0 -0.96875l3.515625 0l0 0.96875l-3.515625 0zm13.459396 3.0625038l0 -8.046879l-3.328125 8.046879l-0.5 0l-3.3125 -8.046879l0 8.046879l-1.21875 0l0 -9.781254l1.75 0l3.03125 7.359375l3.046875 -7.359375l1.75 0l0 9.781254l-1.21875 0zm7.888199 0l0 -0.8125038q-0.90625 0.9843788 -2.34375 0.9843788q-1.078125 0 -1.78125 -0.6718788q-0.703125 -0.671875 -0.703125 -1.671875q0 -1.015625 0.6875 -1.671875q0.703125 -0.65625 1.796875 -0.65625q1.515625 0 2.34375 0.96875l0 -1.28125q0 -0.71875 -0.515625 -1.09375q-0.5 -0.390625 -1.28125 -0.390625q-1.25 0 -2.171875 0.984375l-0.5 -0.765625q1.125 -1.171875 2.828125 -1.171875q1.296875 0 2.015625 0.625q0.71875 0.625 0.71875 1.765625l0 4.859379l-1.09375 0zm-1.953125 -0.6093788q1.296875 0 1.953125 -0.890625l0 -1.328125q-0.65625 -0.875 -1.953125 -0.875q-0.78125 0 -1.265625 0.4375q-0.484375 0.421875 -0.484375 1.109375q0 0.671875 0.484375 1.109375q0.484375 0.4375 1.265625 0.4375zm10.067627 0.6093788l-2.546875 -3.1875038l-1.171875 1.171875l0 2.0156288l-1.109375 0l0 -9.781254l1.109375 0l0 6.46875l3.71875 -3.765625l1.390625 0l-3.140625 3.203125l3.15625 3.8750038l-1.40625 0zm3.2520905 -8.093754q-0.296875 0 -0.515625 -0.203125q-0.21875 -0.21875 -0.21875 -0.53125q0 -0.296875 0.21875 -0.515625q0.21875 -0.234375 0.515625 -0.234375q0.3125 0 0.53125 0.234375q0.21875 0.21875 0.21875 0.515625q0 0.3125 -0.21875 0.53125q-0.21875 0.203125 -0.53125 0.203125zm-0.546875 8.093754l0 -7.078129l1.109375 0l0 7.078129l-1.109375 0zm8.078918 0l0 -4.625004q0 -0.9375 -0.4375 -1.28125q-0.421875 -0.359375 -1.140625 -0.359375q-0.625 0 -1.21875 0.328125q-0.59375 0.328125 -0.875 0.765625l0 5.171879l-1.109375 0l0 -7.078129l1.109375 0l0 1.03125q0.453125 -0.53125 1.109375 -0.859375q0.671875 -0.34375 1.40625 -0.34375q2.25 0 2.25 2.28125l0 4.968754l-1.09375 0zm6.1381226 2.875q-0.90625 0 -1.5625 -0.21875q-0.65625 -0.21875 -1.296875 -0.84375l0.5625 -0.8125q0.4375 0.53125 0.984375 0.75q0.5625 0.21875 1.3125 0.21875q1.09375 0 1.6875 -0.578125q0.59375 -0.5625 0.59375 -1.546875l0 -1.0156288q-0.390625 0.546875 -1.015625 0.90625q-0.609375 0.3593788 -1.359375 0.3593788q-1.4375 0 -2.296875 -1.0156288q-0.859375 -1.015625 -0.859375 -2.65625q0 -1.703125 0.875 -2.6875q0.875 -0.984375 2.28125 -0.984375q1.46875 0 2.375 1.234375l0 -1.0625l1.09375 0l0 6.875q0 1.5000038 -0.875 2.2812538q-0.875 0.796875 -2.5 0.796875zm0.171875 -3.7500038q0.59375 0 1.1875 -0.328125q0.59375 -0.328125 0.921875 -0.828125l0 -3.09375q-0.328125 -0.515625 -0.9375 -0.828125q-0.59375 -0.3125 -1.171875 -0.3125q-1.046875 0 -1.671875 0.75q-0.609375 0.734375 -0.609375 1.9375q0 1.21875 0.625 1.96875q0.640625 0.734375 1.65625 0.734375z" fill-rule="nonzero"/></g></svg>